[Header]
FileType HTR
DataType HTRS
FileVersion 1
NumSegments 64
NumFrames 4
DataFrameRate 30
EulerRotationOrder ZYX
CalibrationUnits mm
RotationUnits Degrees
GlobalAxisofGravity Y
BoneLengthAxis Y
ScaleFactor 1.0
[SegmentNames&Hierarchy]
Hips	GLOBAL
Spine	Hips
Spine1	Spine
Spine2	Spine1
Neck	Spine2
Head	Neck
LeftEye	Head
RightEye	Head
LeftShoulder	Spine2
LeftArm	LeftShoulder
LeftForeArm	LeftArm
LeftHand	LeftForeArm
LeftHandThumb1	LeftHand
LeftHandThumb2	LeftHandThumb1
LeftHandThumb3	LeftHandThumb2
LeftHandThumb4	LeftHandThumb3
LeftHandIndex1	LeftHand
LeftHandIndex2	LeftHandIndex1
LeftHandIndex3	LeftHandIndex2
LeftHandIndex4	LeftHandIndex3
LeftHandMiddle1	LeftHand
LeftHandMiddle2	LeftHandMiddle1
LeftHandMiddle3	LeftHandMiddle2
LeftHandMiddle4	LeftHandMiddle3
LeftHandRing1	LeftHand
LeftHandRing2	LeftHandRing1
LeftHandRing3	LeftHandRing2
LeftHandRing4	LeftHandRing3
LeftHandPinky1	LeftHand
LeftHandPinky2	LeftHandPinky1
LeftHandPinky3	LeftHandPinky2
LeftHandPinky4	LeftHandPinky3
RightShoulder	Spine2
RightArm	RightShoulder
RightForeArm	RightArm
RightHand	RightForeArm
RightHandPinky1	RightHand
RightHandPinky2	RightHandPinky1
RightHandPinky3	RightHandPinky2
RightHandPinky4	RightHandPinky3
RightHandRing1	RightHand
RightHandRing2	RightHandRing1
RightHandRing3	RightHandRing2
RightHandRing4	RightHandRing3
RightHandMiddle1	RightHand
RightHandMiddle2	RightHandMiddle1
RightHandMiddle3	RightHandMiddle2
RightHandMiddle4	RightHandMiddle3
RightHandIndex1	RightHand
RightHandIndex2	RightHandIndex1
RightHandIndex3	RightHandIndex2
RightHandIndex4	RightHandIndex3
RightHandThumb1	RightHand
RightHandThumb2	RightHandThumb1
RightHandThumb3	RightHandThumb2
RightHandThumb4	RightHandThumb3
LeftUpLeg	Hips
LeftLeg	LeftUpLeg
LeftFoot	LeftLeg
LeftToeBase	LeftFoot
RightUpLeg	Hips
RightLeg	RightUpLeg
RightFoot	RightLeg
RightToeBase	RightFoot
[BasePosition]
Hips	0	0	0	0	0	0	1
Spine	0	0	0	0	0	0	1
Spine1	0	0	0	0	0	0	1
Spine2	0	0	0	0	0	0	1
Neck	0	0	0	0	0	0	1
Head	0	0	0	0	0	0	1
LeftEye	0	0	0	0	0	0	1
RightEye	0	0	0	0	0	0	1
LeftShoulder	0	0	0	0	0	0	1
LeftArm	0	0	0	0	0	0	1
LeftForeArm	0	0	0	0	0	0	1
LeftHand	0	0	0	0	0	0	1
LeftHandThumb1	0	0	0	0	0	0	1
LeftHandThumb2	0	0	0	0	0	0	1
LeftHandThumb3	0	0	0	0	0	0	1
LeftHandThumb4	0	0	0	0	0	0	1
LeftHandIndex1	0	0	0	0	0	0	1
LeftHandIndex2	0	0	0	0	0	0	1
LeftHandIndex3	0	0	0	0	0	0	1
LeftHandIndex4	0	0	0	0	0	0	1
LeftHandMiddle1	0	0	0	0	0	0	1
LeftHandMiddle2	0	0	0	0	0	0	1
LeftHandMiddle3	0	0	0	0	0	0	1
LeftHandMiddle4	0	0	0	0	0	0	1
LeftHandRing1	0	0	0	0	0	0	1
LeftHandRing2	0	0	0	0	0	0	1
LeftHandRing3	0	0	0	0	0	0	1
LeftHandRing4	0	0	0	0	0	0	1
LeftHandPinky1	0	0	0	0	0	0	1
LeftHandPinky2	0	0	0	0	0	0	1
LeftHandPinky3	0	0	0	0	0	0	1
LeftHandPinky4	0	0	0	0	0	0	1
RightShoulder	0	0	0	0	0	0	1
RightArm	0	0	0	0	0	0	1
RightForeArm	0	0	0	0	0	0	1
RightHand	0	0	0	0	0	0	1
RightHandPinky1	0	0	0	0	0	0	1
RightHandPinky2	0	0	0	0	0	0	1
RightHandPinky3	0	0	0	0	0	0	1
RightHandPinky4	0	0	0	0	0	0	1
RightHandRing1	0	0	0	0	0	0	1
RightHandRing2	0	0	0	0	0	0	1
RightHandRing3	0	0	0	0	0	0	1
RightHandRing4	0	0	0	0	0	0	1
RightHandMiddle1	0	0	0	0	0	0	1
RightHandMiddle2	0	0	0	0	0	0	1
RightHandMiddle3	0	0	0	0	0	0	1
RightHandMiddle4	0	0	0	0	0	0	1
RightHandIndex1	0	0	0	0	0	0	1
RightHandIndex2	0	0	0	0	0	0	1
RightHandIndex3	0	0	0	0	0	0	1
RightHandIndex4	0	0	0	0	0	0	1
RightHandThumb1	0	0	0	0	0	0	1
RightHandThumb2	0	0	0	0	0	0	1
RightHandThumb3	0	0	0	0	0	0	1
RightHandThumb4	0	0	0	0	0	0	1
LeftUpLeg	0	0	0	0	0	0	1
LeftLeg	0	0	0	0	0	0	1
LeftFoot	0	0	0	0	0	0	1
LeftToeBase	0	0	0	0	0	0	1
RightUpLeg	0	0	0	0	0	0	1
RightLeg	0	0	0	0	0	0	1
RightFoot	0	0	0	0	0	0	1
RightToeBase	0	0	0	0	0	0	1
[Hips]
45	11.53259087	943.9102173	58.51865387	-12.99933147	-8.598875999	9.767277718	1.0
46	2.910662174	948.5887451	73.9281311	-11.49278069	-0.3503525257	7.767841339	1.0
47	-7.337432861	959.4934082	89.59455872	-10.23410797	9.771273613	4.849914551	1.0
48	-19.81973839	974.4680786	105.5774612	-9.535177231	20.68254471	1.341720819	1.0
[Spine]
45	0	101.8159943	1.315000057	25.59504509	7.00034523	-8.468742371	1.0
46	0	101.8159943	1.315000057	25.87372971	10.51338005	-3.418411255	1.0
47	0	101.8159943	1.315000057	26.7140522	11.80857563	2.095908642	1.0
48	0	101.8159943	1.315000057	27.43472099	11.83537483	7.69821167	1.0
[Spine1]
45	0	100.8349991	-10.00800037	-0.01919053867	1.350116611	-7.718305111	1.0
46	0	100.8349991	-10.00800037	1.397792459	2.020572186	-7.377002716	1.0
47	0	100.8349991	-10.00800037	1.561432719	2.335240364	-6.645639896	1.0
48	0	100.8349991	-10.00800037	1.029261112	2.433827639	-5.920142651	1.0
[Spine2]
45	0	91	-13.73399925	0.1103056148	0.9997457266	-7.767946243	1.0
46	0	91	-13.73399925	1.581763506	1.709098697	-7.419332027	1.0
47	0	91	-13.73399925	1.76968348	2.043521881	-6.68986702	1.0
48	0	91	-13.73399925	1.246560097	2.16527009	-5.981343269	1.0
[Neck]
45	0	166.7169952	-25.16200066	-5.007372379	-0.9441847801	0.2721028924	1.0
46	0	166.7169952	-25.16200066	-3.899403095	-2.756673813	-1.690866709	1.0
47	0	166.7169952	-25.16200066	-1.60696125	-4.214644432	-3.35480237	1.0
48	0	166.7169952	-25.16200066	0.7584208846	-5.374561787	-4.732961178	1.0
[Head]
45	0	96.17900085	16.84999847	-11.48300648	-4.890480042	14.50354099	1.0
46	0	96.17900085	16.84999847	-10.99134541	-15.91702175	13.47675037	1.0
47	0	96.17900085	16.84999847	-8.579867363	-25.8649044	12.94912529	1.0
48	0	96.17900085	16.84999847	-6.410961151	-34.51634598	12.86188221	1.0
[LeftEye]
45	30.6760006	64.09500122	92.83599854	0	0	0	1.0
46	30.6760006	64.09500122	92.83599854	0	0	0	1.0
47	30.6760006	64.09500122	92.83599854	0	0	0	1.0
48	30.6760006	64.09500122	92.83599854	0	0	0	1.0
[RightEye]
45	-30.6760006	64.09500122	92.83499908	0	0	0	1.0
46	-30.6760006	64.09500122	92.83499908	0	0	0	1.0
47	-30.6760006	64.09500122	92.83499908	0	0	0	1.0
48	-30.6760006	64.09500122	92.83499908	0	0	0	1.0
[LeftShoulder]
45	45.70400238	109.4599991	-26.28000069	-1.028726935	7.814424992	-17.00232124	1.0
46	45.70400238	109.4599991	-26.28000069	-0.8610126972	7.09832716	-17.17464638	1.0
47	45.70400238	109.4599991	-26.28000069	-0.7075875998	6.46792984	-17.13376999	1.0
48	45.70400238	109.4599991	-26.28000069	-0.5352135301	5.868442059	-15.68465805	1.0
[LeftArm]
45	105.923996	-5.24600029	-22.32099915	-8.101784706	33.32292175	-37.06441498	1.0
46	105.923996	-5.24600029	-22.32099915	-16.38260269	37.04009628	-34.29924393	1.0
47	105.923996	-5.24600029	-22.32099915	-22.92455101	40.04031372	-29.6843586	1.0
48	105.923996	-5.24600029	-22.32099915	-31.10377312	40.07139587	-27.23981857	1.0
[LeftForeArm]
45	278.414978	-0.0009999999311	0	6.030239547e-06	-37.21501923	-0.0002098688128	1.0
46	278.414978	-0.0009999999311	0	6.190044587e-06	-44.77887726	-0.000216584318	1.0
47	278.414978	-0.0009999999311	0	-2.233689202e-06	-52.13670349	-0.0002001696266	1.0
48	278.414978	-0.0009999999311	0	2.669888545e-06	-57.15097046	-0.0002040144755	1.0
[LeftHand]
45	283.2879944	0	0	-45.95789719	-14.71038055	14.78718376	1.0
46	283.2879944	0	0	-58.36330032	-14.30121613	18.85382652	1.0
47	283.2879944	0	0	-65.71914673	-9.694804192	22.20655441	1.0
48	283.2879944	0	0	-68.95714569	-5.634240627	24.73664856	1.0
[LeftHandThumb1]
45	24.6609993	-15.75	26.8239994	-27.30588722	-12.30708599	35.53237915	1.0
46	24.6609993	-15.75	26.8239994	-28.46405602	-11.40633106	34.4040947	1.0
47	24.6609993	-15.75	26.8239994	-28.63576126	-10.5524168	31.47371674	1.0
48	24.6609993	-15.75	26.8239994	-28.44086838	-9.857751846	28.95724487	1.0
[LeftHandThumb2]
45	32.29800034	-18.64699936	18.64699936	1.211508512	-0.1875210851	-1.054762006	1.0
46	32.29800034	-18.64699936	18.64699936	1.211571217	-0.1875517815	-1.054748654	1.0
47	32.29800034	-18.64699936	18.64699936	1.211645007	-0.1875786334	-1.054739118	1.0
48	32.29800034	-18.64699936	18.64699936	1.211574316	-0.1875499487	-1.054762721	1.0
[LeftHandThumb3]
45	26.52600098	-15.31499958	15.31499958	0.5956394672	-3.81989336	4.188806057	1.0
46	26.52600098	-15.31499958	15.31499958	-0.2523270249	-2.843424559	4.105660439	1.0
47	26.52600098	-15.31499958	15.31499958	-1.228540778	-1.703596115	3.957469702	1.0
48	26.52600098	-15.31499958	15.31499958	-1.810649872	-0.5888906121	3.811847448	1.0
[LeftHandThumb4]
45	19.54599953	-11.28499985	11.28499985	0	0	0	1.0
46	19.54599953	-11.28499985	11.28499985	0	0	0	1.0
47	19.54599953	-11.28499985	11.28499985	0	0	0	1.0
48	19.54599953	-11.28499985	11.28499985	0	0	0	1.0
[LeftHandIndex1]
45	91.09299469	-5.170999527	22.60099792	0.046833992	-8.226817131	-6.225944996	1.0
46	91.09299469	-5.170999527	22.60099792	0.04877921939	-9.516553879	-7.817398071	1.0
47	91.09299469	-5.170999527	22.60099792	-0.06259551644	-9.733066559	-13.54523659	1.0
48	91.09299469	-5.170999527	22.60099792	-0.2925991416	-8.902593613	-19.98422623	1.0
[LeftHandIndex2]
45	36.76399994	0	0	-0.0004828639794	0.08086886257	-0.6726920605	1.0
46	36.76399994	0	0	-0.0004636599042	0.07908620685	-0.6578548551	1.0
47	36.76399994	0	0	-0.0004041858774	0.073932603	-0.6149727106	1.0
48	36.76399994	0	0	-0.0003369370825	0.06652908772	-0.5533573627	1.0
[LeftHandIndex3]
45	28.83100128	0	0	-0.03046183102	0.6471107006	-5.390757084	1.0
46	28.83100128	0	0	-0.03246561438	0.6679176688	-5.564641953	1.0
47	28.83100128	0	0	-0.03605329245	0.7036787271	-5.863639832	1.0
48	28.83100128	0	0	-0.03965378925	0.7380675673	-6.1513381	1.0
[LeftHandIndex4]
45	23.92700005	0	0	0	0	0	1.0
46	23.92700005	0	0	0	0	0	1.0
47	23.92700005	0	0	0	0	0	1.0
48	23.92700005	0	0	0	0	0	1.0
[LeftHandMiddle1]
45	95.33399963	0	0	-0.1624482572	-2.323538065	-13.06003571	1.0
46	95.33399963	0	0	-0.1810806394	-2.688961267	-13.79554367	1.0
47	95.33399963	0	0	-0.2931390703	-2.481380701	-17.30409431	1.0
48	95.33399963	0	0	-0.4596873522	-2.001570225	-21.44707298	1.0
[LeftHandMiddle2]
45	36.98199844	0	0	-0.1202620193	1.282159686	-10.72898006	1.0
46	36.98199844	0	0	-0.1218461245	1.289689422	-10.793046	1.0
47	36.98199844	0	0	-0.146019116	1.410582781	-11.81908417	1.0
48	36.98199844	0	0	-0.1790116131	1.559281349	-13.08690548	1.0
[LeftHandMiddle3]
45	29.50900078	0	0	-0.04336389899	0.7717298865	-6.433083057	1.0
46	29.50900078	0	0	-0.0451105684	0.7869023085	-6.560172558	1.0
47	29.50900078	0	0	-0.04897435755	0.8196920156	-6.834822178	1.0
48	29.50900078	0	0	-0.05309638381	0.8534727097	-7.117932796	1.0
[LeftHandMiddle4]
45	28.3390007	0	0	0	0	0	1.0
46	28.3390007	0	0	0	0	0	1.0
47	28.3390007	0	0	0	0	0	1.0
48	28.3390007	0	0	0	0	0	1.0
[LeftHandRing1]
45	91.04499817	-0.4390000105	-18.65100098	-0.6020545363	1.847649574	-24.17425537	1.0
46	91.04499817	-0.4390000105	-18.65100098	-0.6084134579	1.682773232	-24.29425049	1.0
47	91.04499817	-0.4390000105	-18.65100098	-0.7183819413	1.767570257	-26.4372654	1.0
48	91.04499817	-0.4390000105	-18.65100098	-0.8734843731	2.033864498	-29.19706535	1.0
[LeftHandRing2]
45	31.54000092	0	0	-0.4082841575	2.335609198	-19.83158493	1.0
46	31.54000092	0	0	-0.3920418024	2.289916515	-19.4275341	1.0
47	31.54000092	0	0	-0.3988931477	2.309232235	-19.59825516	1.0
48	31.54000092	0	0	-0.4156356156	2.355614901	-20.00914764	1.0
[LeftHandRing3]
45	29.37700081	0	0	-0.06367489696	0.9343943596	-7.796942234	1.0
46	29.37700081	0	0	-0.06345846504	0.9328263998	-7.78373003	1.0
47	29.37700081	0	0	-0.06370687485	0.9347354174	-7.799832344	1.0
48	29.37700081	0	0	-0.06420265138	0.9382252097	-7.829138279	1.0
[LeftHandRing4]
45	26.47500038	0	0	0	0	0	1.0
46	26.47500038	0	0	0	0	0	1.0
47	26.47500038	0	0	0	0	0	1.0
48	26.47500038	0	0	0	0	0	1.0
[LeftHandPinky1]
45	80.77799988	-4.887000084	-38.06099701	-1.752862334	4.234287262	-41.82595825	1.0
46	80.77799988	-4.887000084	-38.06099701	-1.716551781	4.265148163	-41.36595535	1.0
47	80.77799988	-4.887000084	-38.06099701	-1.819441676	4.291491508	-42.64951706	1.0
48	80.77799988	-4.887000084	-38.06099701	-1.988021493	4.342351437	-44.68264771	1.0
[LeftHandPinky2]
45	36	0	0	0.8603408933	-2.023729324	-16.29458809	1.0
46	36	0	0	0.8323351145	-2.128384829	-15.52024746	1.0
47	36	0	0	0.7887388468	-2.280633211	-14.3882103	1.0
48	36	0	0	0.7422398925	-2.431814909	-13.25733852	1.0
[LeftHandPinky3]
45	21.14200211	0	0	-0.04038415104	0.7447961569	-6.207607269	1.0
46	21.14200211	0	0	-0.03950453922	0.7364950776	-6.138130188	1.0
47	21.14200211	0	0	-0.03792740777	0.7217626572	-6.014886856	1.0
48	21.14200211	0	0	-0.03650122881	0.7079735994	-5.899591923	1.0
[LeftHandPinky4]
45	19.75699997	0	0	0	0	0	1.0
46	19.75699997	0	0	0	0	0	1.0
47	19.75699997	0	0	0	0	0	1.0
48	19.75699997	0	0	0	0	0	1.0
[RightShoulder]
45	-45.70000076	109.4620056	-26.28000069	-0.4353407919	0.8798087835	-21.02725601	1.0
46	-45.70000076	109.4620056	-26.28000069	-0.332942307	1.603985429	-17.11895752	1.0
47	-45.70000076	109.4620056	-26.28000069	0.01765760407	2.659499407	-9.629253387	1.0
48	-45.70000076	109.4620056	-26.28000069	0.4157804251	2.24533844	-0.9846077561	1.0
[RightArm]
45	-105.9280014	-5.248000145	-22.32099915	-63.88835526	22.87446213	-9.931596756	1.0
46	-105.9280014	-5.248000145	-22.32099915	-73.73807526	28.80002403	-10.0546236	1.0
47	-105.9280014	-5.248000145	-22.32099915	-80.51023102	33.98556519	-11.29057312	1.0
48	-105.9280014	-5.248000145	-22.32099915	-85.3957901	38.8408165	-11.76447678	1.0
[RightForeArm]
45	-278.414978	0	0	6.318320084e-05	91.27585602	0.0002897444356	1.0
46	-278.414978	0	0	-0.0007476806641	90.29816437	-1.525878906e-05	1.0
47	-278.414978	0	0	-0.0001183036293	86.45114899	-6.7360088e-05	1.0
48	-278.414978	0	0	3.037465831e-05	81.43566895	-2.703217251e-05	1.0
[RightHand]
45	-283.2879944	0	0.0009999999311	-35.92176056	26.8655529	-0.4897758961	1.0
46	-283.2879944	0	0.0009999999311	-46.77195358	31.41184807	-9.376293182	1.0
47	-283.2879944	0	0.0009999999311	-52.86867905	31.20599174	-13.28139019	1.0
48	-283.2879944	0	0.0009999999311	-56.0876236	28.11954308	-15.05997753	1.0
[RightHandPinky1]
45	-80.76699829	-4.885000229	-38.06000137	-5.47676754	-13.60800362	78.00634766	1.0
46	-80.76699829	-4.885000229	-38.06000137	-5.400514603	-14.61996269	77.39668274	1.0
47	-80.76699829	-4.885000229	-38.06000137	-5.40468359	-15.85413647	77.47350311	1.0
48	-80.76699829	-4.885000229	-38.06000137	-5.42584753	-16.83503532	77.68632507	1.0
[RightHandPinky2]
45	-36	0	0.0009999999311	-2.001190662	-4.873960018	44.63635635	1.0
46	-36	0	0.0009999999311	-1.92567873	-4.796625614	43.74119949	1.0
47	-36	0	0.0009999999311	-1.865460515	-4.73304224	43.01593018	1.0
48	-36	0	0.0009999999311	-1.825815678	-4.690372467	42.53366089	1.0
[RightHandPinky3]
45	-21.14200211	0	0	-0.03822129592	0.728148222	-6.009471416	1.0
46	-21.14200211	0	0	-0.03727319092	0.7190864682	-5.934412003	1.0
47	-21.14200211	0	0	-0.03561718389	0.7029829621	-5.801027298	1.0
48	-21.14200211	0	0	-0.03392310068	0.6861172915	-5.661370754	1.0
[RightHandPinky4]
45	-19.75699997	0	0	0	0	0	1.0
46	-19.75699997	0	0	0	0	0	1.0
47	-19.75699997	0	0	0	0	0	1.0
48	-19.75699997	0	0	0	0	0	1.0
[RightHandRing1]
45	-91.03599548	-0.4390000105	-18.65100098	-3.482910872	-6.100124836	60.14958954	1.0
46	-91.03599548	-0.4390000105	-18.65100098	-3.254827976	-6.269904137	57.94815445	1.0
47	-91.03599548	-0.4390000105	-18.65100098	-3.134892702	-6.817303658	56.7720871	1.0
48	-91.03599548	-0.4390000105	-18.65100098	-3.075468302	-7.478957176	56.19532013	1.0
[RightHandRing2]
45	-31.54000092	0	0	-0.4106106758	-2.353612661	19.79001617	1.0
46	-31.54000092	0	0	-0.4341410995	-2.417933226	20.35515213	1.0
47	-31.54000092	0	0	-0.4808366299	-2.539859533	21.43247032	1.0
48	-31.54000092	0	0	-0.5251479149	-2.649900675	22.41158485	1.0
[RightHandRing3]
45	-29.37700081	0	0	1.011360288	-0.01387382671	0.115235731	1.0
46	-29.37700081	0	0	1.787305236	-0.06067728624	0.5002660751	1.0
47	-29.37700081	0	0	2.675640106	-0.114889808	0.9477398992	1.0
48	-29.37700081	0	0	3.308033943	-0.1617036015	1.332873821	1.0
[RightHandRing4]
45	-26.47500038	0	0	0	0	0	1.0
46	-26.47500038	0	0	0	0	0	1.0
47	-26.47500038	0	0	0	0	0	1.0
48	-26.47500038	0	0	0	0	0	1.0
[RightHandMiddle1]
45	-95.32500458	0	0	-2.179445744	1.679412007	47.08571243	1.0
46	-95.32500458	0	0	-1.717422962	2.508564711	41.67654037	1.0
47	-95.32500458	0	0	-1.445417285	2.686986685	38.16714859	1.0
48	-95.32500458	0	0	-1.3042171	2.296141624	36.1777916	1.0
[RightHandMiddle2]
45	-36.98199844	0	0	-0.3475255668	-2.169596672	18.18509102	1.0
46	-36.98199844	0	0	-0.443138212	-2.442034483	20.56739235	1.0
47	-36.98199844	0	0	-0.5972011685	-2.815893173	23.90541077	1.0
48	-36.98199844	0	0	-0.7396678925	-3.118422747	26.66781998	1.0
[RightHandMiddle3]
45	-29.50900078	0	0	0.2704792321	-0.1679258794	1.370989561	1.0
46	-29.50900078	0	0	1.388130784	-0.2893757522	2.369051456	1.0
47	-29.50900078	0	0	2.482410669	-0.4156031013	3.412273645	1.0
48	-29.50900078	0	0	3.146715164	-0.5167276859	4.245355129	1.0
[RightHandMiddle4]
45	-28.3390007	0	0.0009999999311	0	0	0	1.0
46	-28.3390007	0	0.0009999999311	0	0	0	1.0
47	-28.3390007	0	0.0009999999311	0	0	0	1.0
48	-28.3390007	0	0.0009999999311	0	0	0	1.0
[RightHandIndex1]
45	-91.08300018	-5.167999744	22.60099792	-1.197181702	10.89195442	37.10795212	1.0
46	-91.08300018	-5.167999744	22.60099792	-0.5639818311	12.93516636	28.02428818	1.0
47	-91.08300018	-5.167999744	22.60099792	-0.2531760335	13.84593487	22.38941765	1.0
48	-91.08300018	-5.167999744	22.60099792	-0.1237592846	13.62014198	19.09819794	1.0
[RightHandIndex2]
45	-36.76399994	0	0	-0.160801053	-1.476485252	12.26395226	1.0
46	-36.76399994	0	0	-0.4064274132	-2.341953278	19.6877594	1.0
47	-36.76399994	0	0	-0.8087565303	-3.241937876	27.83448029	1.0
48	-36.76399994	0	0	-1.190268755	-3.886475801	34.03786469	1.0
[RightHandIndex3]
45	-28.83100128	0	0	-0.0009863728192	0.1186812371	-0.9776602983	1.0
46	-28.83100128	0	0	2.053341177e-07	0.002586223884	-0.02127924748	1.0
47	-28.83100128	0	0	-0.0004609137832	-0.08001112193	0.6592191458	1.0
48	-28.83100128	0	0	-0.001233916846	-0.1395815015	1.149793625	1.0
[RightHandIndex4]
45	-23.92700005	0	0	0	0	0	1.0
46	-23.92700005	0	0	0	0	0	1.0
47	-23.92700005	0	0	0	0	0	1.0
48	-23.92700005	0	0	0	0	0	1.0
[RightHandThumb1]
45	-24.64799881	-15.72700024	26.82600021	8.822836876	-6.576579094	-1.620728254	1.0
46	-24.64799881	-15.72700024	26.82600021	1.38305676	-7.193603516	-3.624858141	1.0
47	-24.64799881	-15.72700024	26.82600021	-4.141982555	-7.342046261	-10.0247097	1.0
48	-24.64799881	-15.72700024	26.82600021	-6.872386932	-7.750219345	-14.06612778	1.0
[RightHandThumb2]
45	-32.29800034	-18.64699936	18.64699936	2.065104485	0.3198763728	1.745453477	1.0
46	-32.29800034	-18.64699936	18.64699936	2.068968773	0.3191574514	1.752896786	1.0
47	-32.29800034	-18.64699936	18.64699936	2.067517757	0.3227181137	1.738807321	1.0
48	-32.29800034	-18.64699936	18.64699936	2.061422825	0.3300020993	1.706029058	1.0
[RightHandThumb3]
45	-26.52600098	-15.31399918	15.31399918	-4.447062492	2.40560317	-3.55001545	1.0
46	-26.52600098	-15.31399918	15.31399918	-3.656579494	0.9211145639	-3.39816165	1.0
47	-26.52600098	-15.31399918	15.31399918	-3.154356718	0.3003172576	-3.290915489	1.0
48	-26.52600098	-15.31399918	15.31399918	-3.081096172	0.6940687299	-3.230952024	1.0
[RightHandThumb4]
45	-19.54599953	-11.28499985	11.28499985	0	0	0	1.0
46	-19.54599953	-11.28499985	11.28499985	0	0	0	1.0
47	-19.54599953	-11.28499985	11.28499985	0	0	0	1.0
48	-19.54599953	-11.28499985	11.28499985	0	0	0	1.0
[LeftUpLeg]
45	82.07800293	-67.51699829	-15.99599934	-10.55844784	-3.76973772	-5.916259289	1.0
46	82.07800293	-67.51699829	-15.99599934	-10.2544241	-7.027288914	-3.725419521	1.0
47	82.07800293	-67.51699829	-15.99599934	-10.15989113	-11.14196014	-0.3485497832	1.0
48	82.07800293	-67.51699829	-15.99599934	-10.32597733	-12.48046684	2.96775794	1.0
[LeftLeg]
45	0	-443.7049866	2.845999956	45.14535904	7.140561104	-7.895367622	1.0
46	0	-443.7049866	2.845999956	44.69739151	7.760098934	-7.211567879	1.0
47	0	-443.7049866	2.845999956	42.65591049	5.127636433	-9.073320389	1.0
48	0	-443.7049866	2.845999956	39.88311768	-0.1970382482	-8.613069534	1.0
[LeftFoot]
45	0	-444.2789917	-29.8219986	-24.63199234	13.36907768	-0.1828729212	1.0
46	0	-444.2789917	-29.8219986	-24.22699165	7.251013279	1.15454936	1.0
47	0	-444.2789917	-29.8219986	-22.8425808	4.213423729	2.37903595	1.0
48	0	-444.2789917	-29.8219986	-20.76119423	-1.048638821	2.102574825	1.0
[LeftToeBase]
45	0	-87.28699493	107.1060028	-0.0004746812338	4.444851129e-06	1.812571213e-06	1.0
46	0	-87.28699493	107.1060028	-0.0001117761785	6.395599712e-07	-1.276702164e-06	1.0
47	0	-87.28699493	107.1060028	0.01104388479	-1.241261884e-06	8.213180536e-07	1.0
48	0	-87.28699493	107.1060028	0.02729125321	6.027059953e-07	-4.61816029e-07	1.0
[RightUpLeg]
45	-82.07800293	-67.51699829	-15.99599934	-22.09237671	14.35945606	-19.12003899	1.0
46	-82.07800293	-67.51699829	-15.99599934	-24.25763321	10.78100109	-17.40306664	1.0
47	-82.07800293	-67.51699829	-15.99599934	-24.10867119	6.256317139	-16.20599937	1.0
48	-82.07800293	-67.51699829	-15.99599934	-22.1786499	1.269477725	-14.32620907	1.0
[RightLeg]
45	0	-443.7049866	2.861999989	75.28596497	7.026299477	-11.3521328	1.0
46	0	-443.7049866	2.861999989	70.9205246	3.6365695	-11.01930523	1.0
47	0	-443.7049866	2.861999989	62.14193344	-2.062957048	-7.729217529	1.0
48	0	-443.7049866	2.861999989	50.06234741	-6.767868519	-6.248324394	1.0
[RightFoot]
45	0	-444.2770081	-29.83799934	-13.32278442	-2.950246096	3.703299284	1.0
46	0	-444.2770081	-29.83799934	-17.91059303	-0.9353548884	4.647402287	1.0
47	0	-444.2770081	-29.83799934	-18.491539	0.8759483099	8.417888641	1.0
48	0	-444.2770081	-29.83799934	-16.06471062	1.356644392	9.34924221	1.0
[RightToeBase]
45	0	-87.28699493	107.1060028	9.718366623	4.091591563e-06	1.24427379e-05	1.0
46	0	-87.28699493	107.1060028	8.102290154	-8.305298138e-07	1.587168526e-06	1.0
47	0	-87.28699493	107.1060028	7.396272182	-3.207135933e-06	-2.412429581e-07	1.0
48	0	-87.28699493	107.1060028	7.133029461	1.011064796e-06	-3.359568836e-06	1.0
[EndOfFile]
